<svg xmlns="http://www.w3.org/2000/svg" viewBox="0 0 64 64">
  <!-- Neck -->
  <rect x="24" y="28" width="14" height="22" rx="4" fill="#F5A623"/>
  <!-- Body -->
  <ellipse cx="31" cy="52" rx="16" ry="11" fill="#F5A623"/>
  <!-- Body spots -->
  <ellipse cx="24" cy="50" rx="4" ry="5" fill="#8B4513" opacity="0.7"/>
  <ellipse cx="38" cy="54" rx="3" ry="4" fill="#8B4513" opacity="0.7"/>
  <!-- Head -->
  <ellipse cx="31" cy="22" rx="11" ry="10" fill="#F5A623"/>
  <!-- Snout -->
  <ellipse cx="37" cy="25" rx="6" ry="5" fill="#F8C07A"/>
  <!-- Nostril -->
  <circle cx="35" cy="26" r="1.2" fill="#8B4513"/>
  <circle cx="38" cy="26.5" r="1.2" fill="#8B4513"/>
  <!-- Ossicones -->
  <rect x="21" y="10" width="4" height="10" rx="2" fill="#8B4513"/>
  <rect x="30" y="9" width="4" height="10" rx="2" fill="#8B4513"/>
  <circle cx="23" cy="10" r="3" fill="#F5A623"/>
  <circle cx="32" cy="9" r="3" fill="#F5A623"/>
  <!-- Eye -->
  <circle cx="34" cy="20" r="4" fill="white"/>
  <circle cx="35" cy="20" r="2" fill="#333"/>
  <circle cx="34.5" cy="19" r="0.9" fill="white"/>
  <!-- Scarf -->
  <rect x="22" y="32" width="18" height="5" rx="2.5" fill="#e63946" opacity="0.9"/>
</svg>
